<svg width="32" height="32" viewBox="0 0 32 32" fill="none" xmlns="http://www.w3.org/2000/svg">
<path d="M3.99878 9.33057V6.66455C3.99878 5.95748 4.27966 5.27937 4.77964 4.77939C5.27961 4.27942 5.95772 3.99854 6.6648 3.99854H9.33081" stroke="white" stroke-width="2.66583" stroke-linecap="round" stroke-linejoin="round"/>
<path d="M22.6597 3.99854H25.3257C26.0328 3.99854 26.7109 4.27942 27.2108 4.77939C27.7108 5.27937 27.9917 5.95748 27.9917 6.66455V9.33057" stroke="white" stroke-width="2.66583" stroke-linecap="round" stroke-linejoin="round"/>
<path d="M27.9917 22.6597V25.3257C27.9917 26.0328 27.7108 26.7109 27.2108 27.2108C26.7109 27.7108 26.0328 27.9917 25.3257 27.9917H22.6597" stroke="white" stroke-width="2.66583" stroke-linecap="round" stroke-linejoin="round"/>
<path d="M9.33081 27.9917H6.6648C5.95772 27.9917 5.27961 27.7108 4.77964 27.2108C4.27966 26.7109 3.99878 26.0328 3.99878 25.3257V22.6597" stroke="white" stroke-width="2.66583" stroke-linecap="round" stroke-linejoin="round"/>
</svg>
