<svg width="20" height="20" viewBox="0 0 20 20" fill="none" xmlns="http://www.w3.org/2000/svg">
<path d="M16.5836 8.34378C16.5836 12.4838 11.9908 16.7955 10.4486 18.1271C10.3049 18.2352 10.13 18.2936 9.95023 18.2936C9.77047 18.2936 9.59557 18.2352 9.4519 18.1271C7.90965 16.7955 3.31689 12.4838 3.31689 8.34378C3.31689 6.58451 4.01576 4.8973 5.25975 3.65331C6.50374 2.40932 8.19096 1.71045 9.95023 1.71045C11.7095 1.71045 13.3967 2.40932 14.6407 3.65331C15.8847 4.8973 16.5836 6.58451 16.5836 8.34378Z" stroke="#00D492" stroke-width="1.65833" stroke-linecap="round" stroke-linejoin="round"/>
<path d="M9.9499 10.8314C11.3237 10.8314 12.4374 9.71775 12.4374 8.34395C12.4374 6.97014 11.3237 5.85645 9.9499 5.85645C8.57609 5.85645 7.4624 6.97014 7.4624 8.34395C7.4624 9.71775 8.57609 10.8314 9.9499 10.8314Z" stroke="#00D492" stroke-width="1.65833" stroke-linecap="round" stroke-linejoin="round"/>
</svg>
