<svg width="20" height="20" viewBox="0 0 20 20" fill="none" xmlns="http://www.w3.org/2000/svg">
<path d="M11.5265 13.8065C11.6986 13.8855 11.8925 13.9036 12.0762 13.8577C12.26 13.8118 12.4226 13.7047 12.5373 13.554L12.8332 13.1665C12.9884 12.9595 13.1897 12.7915 13.4211 12.6758C13.6526 12.5601 13.9078 12.4998 14.1665 12.4998H16.6665C17.1085 12.4998 17.5325 12.6754 17.845 12.988C18.1576 13.3006 18.3332 13.7245 18.3332 14.1665V16.6665C18.3332 17.1085 18.1576 17.5325 17.845 17.845C17.5325 18.1576 17.1085 18.3332 16.6665 18.3332C12.6883 18.3332 8.87295 16.7528 6.0599 13.9398C3.24686 11.1267 1.6665 7.31142 1.6665 3.33317C1.6665 2.89114 1.8421 2.46722 2.15466 2.15466C2.46722 1.8421 2.89114 1.6665 3.33317 1.6665H5.83317C6.2752 1.6665 6.69912 1.8421 7.01168 2.15466C7.32424 2.46722 7.49984 2.89114 7.49984 3.33317V5.83317C7.49984 6.09191 7.4396 6.3471 7.32388 6.57853C7.20817 6.80995 7.04016 7.01126 6.83317 7.1665L6.44317 7.459C6.29018 7.57582 6.18235 7.74199 6.138 7.9293C6.09364 8.1166 6.11549 8.31348 6.19984 8.4865C7.33874 10.7997 9.21186 12.6705 11.5265 13.8065Z" stroke="#51A2FF" stroke-width="1.66667" stroke-linecap="round" stroke-linejoin="round"/>
</svg>
