<svg width="24" height="24" viewBox="0 0 24 24" fill="none" xmlns="http://www.w3.org/2000/svg">
<path d="M19.9916 12.9944C19.9916 17.9923 16.4931 20.4913 12.3348 21.9407C12.1171 22.0145 11.8805 22.0109 11.6651 21.9307C7.49683 20.4913 3.99829 17.9923 3.99829 12.9944V5.99732C3.99829 5.73221 4.1036 5.47796 4.29106 5.29051C4.47852 5.10305 4.73277 4.99773 4.99787 4.99773C6.99704 4.99773 9.496 3.79823 11.2353 2.27887C11.447 2.09794 11.7164 1.99854 11.995 1.99854C12.2735 1.99854 12.5429 2.09794 12.7546 2.27887C14.5039 3.80823 16.9929 4.99773 18.992 4.99773C19.2571 4.99773 19.5114 5.10305 19.6989 5.29051C19.8863 5.47796 19.9916 5.73221 19.9916 5.99732V12.9944Z" stroke="#51A2FF" stroke-width="1.99917" stroke-linecap="round" stroke-linejoin="round"/>
</svg>
